# xmcd
#
# Track frame offsets:
#       150
#       27947
#       71973
#       98686
#       124788
#       152611
#       180016
#       204874
#       233839
#       259006
#       287337
#       321816
#
# Disc length: 4732 seconds
#
# Revision: 0
# Processed by: cddbd v1.4PL0 Copyright (c) Steve Scherf et al.
# Submitted via: WhereIsIt 3.22
#
DISCID=94127a0c
DTITLE=Golden Blues - Romantic Collection
DYEAR=1900
DGENRE=
TTITLE0=Still Got The Blues For You - Gary Moore
TTITLE1=Round Midnight - Ronnie Earl
TTITLE2=Let It Rain - Patricia Barber
TTITLE3=If You Love Me - B.B.King - Van Morrison
TTITLE4=Blues In My Sleep - James Cotton
TTITLE5=Someone To Love - Diane Schuur
TTITLE6=Do You Call That A Buddy - Chris Cane
TTITLE7=My Everything - Jeff Golub
TTITLE8=Don't Touch Me - Barbara Morrison
TTITLE9=Going Down Slow - The Muddy Waters Tribute Band
TTITLE10=Blue Saxophone - Teddy Edwards - Lisa Nabumoto
TTITLE11=Parisienne Walkaways - Gary Moore
EXTD=
EXTT0=
EXTT1=
EXTT2=
EXTT3=
EXTT4=
EXTT5=
EXTT6=
EXTT7=
EXTT8=
EXTT9=
EXTT10=
EXTT11=
PLAYORDER=
